<?xml version="1.0" standalone="no"?>
<!DOCTYPE svg PUBLIC "-//W3C//DTD SVG 20010904//EN"
 "http://www.w3.org/TR/2001/REC-SVG-20010904/DTD/svg10.dtd">
<svg version="1.0" xmlns="http://www.w3.org/2000/svg"
 width="540.000000pt" height="540.000000pt" viewBox="0 0 540.000000 540.000000"
 preserveAspectRatio="xMidYMid meet">
<metadata>
Created by potrace 1.15, written by Peter Selinger 2001-2017
</metadata>
<g transform="translate(0.000000,540.000000) scale(0.100000,-0.100000)">
<path d="M330 2615 l0 -1435 1780 0 1780 0 0 165 0 165 590 0 590 0 0 1105 0
1105 -590 0 -590 0 0 165 0 165 -1780 0 -1780 0 0 -1435z m3210 0 l0 -1095
-1430 0 -1430 0 0 1095 0 1095 1430 0 1430 0 0 -1095z m1180 0 l0 -755 -415 0
-415 0 0 165 0 165 250 0 250 0 0 175 0 175 -250 0 -250 0 0 80 0 80 250 0
250 0 0 170 0 170 -250 0 -250 0 0 165 0 165 415 0 415 0 0 -755z"/>
<path d="M2313 3369 c-81 -14 -205 -63 -281 -112 -160 -103 -270 -255 -324
-444 -30 -106 -30 -283 0 -396 99 -368 468 -612 843 -558 403 59 681 402 656
809 -28 452 -442 777 -894 701z m248 -355 c76 -23 128 -56 188 -119 73 -77
103 -148 109 -256 7 -134 -36 -238 -134 -329 -203 -187 -528 -123 -650 126
-155 318 149 678 487 578z"/>
<path d="M2381 2674 c-48 -61 -10 -144 67 -144 63 0 102 56 81 117 -13 40 -34
53 -88 53 -31 0 -44 -6 -60 -26z"/>
<path d="M1171 2856 c-93 -34 -161 -135 -161 -241 1 -146 109 -255 255 -255
180 0 296 165 243 344 -16 55 -99 138 -154 154 -52 15 -138 14 -183 -2z"/>
</g>
</svg>

