
<svg xmlns="http://www.w3.org/2000/svg" width="24" height="24" viewBox="0 0 24 24">
  <path d="m0,0l24,0l0,24l-24,0l0,-24z" fill="none"/>
  <path d="m17,1.01l-10,-0.01c-1.1,0 -2,0.9 -2,2l0,18c0,1.1 0.9,2 2,2l10,0c1.1,0 2,-0.9 2,-2l0,-18c0,-1.1 -0.9,-1.99 -2,-1.99zm0,17.99l-10,0l0,-14l10,0l0,14z"/>
  <path transform="translate(1.3348388671875,0.8009033203125) " fill="none" d="m0,0l24,0l0,24l-24,0l0,-24z"/>
  <path d="m11.89572,13.75864c0.4513,0 0.82055,-0.36618 0.82055,-0.81374s-0.36924,-0.81374 -0.82055,-0.81374s-0.82055,0.36618 -0.82055,0.81374s0.36924,0.81374 0.82055,0.81374zm2.46163,-3.66184l-0.41027,0l0,-0.81374c0,-1.12297 -0.91901,-2.03436 -2.05136,-2.03436s-2.05136,0.91139 -2.05136,2.03436l0.77952,0c0,-0.69575 0.57027,-1.2613 1.27184,-1.2613c0.70157,0 1.27184,0.56555 1.27184,1.2613l0,0.81374l-3.73348,0c-0.4513,0 -0.82055,0.36618 -0.82055,0.81374l0,4.0687c0,0.44755 0.36924,0.81374 0.82055,0.81374l4.92327,0c0.4513,0 0.82055,-0.36618 0.82055,-0.81374l0,-4.0687c0,-0.44755 -0.36924,-0.81374 -0.82055,-0.81374zm0,4.88245l-4.92327,0l0,-4.0687l4.92327,0l0,4.0687z"/>
</svg>
